<svg height="512pt" viewBox="0 -11 512.0117 512" width="512pt" xmlns="http://www.w3.org/2000/svg"><path d="m490.636719 52.378906c-.148438-2.878906-1.472657-5.566406-3.648438-7.464844-2.175781-1.878906-5.078125-2.925781-7.894531-2.582031l-384 32.085938c-5.738281.488281-10.046875 5.460937-9.75 11.21875l21.335938 394.945312c.167968 2.945313 1.511718 5.675781 3.753906 7.550781 1.960937 1.644532 4.394531 2.539063 6.910156 2.539063.40625 0 .789062-.019531 1.175781-.0625l384-42.667969c5.628907-.617187 9.789063-5.546875 9.472657-11.199218zm0 0" fill="#90a4ae"/><path d="m467.382812 111.175781c-1.644531-2.328125-4.140624-3.90625-6.957031-4.375l-384-64c-5.757812-.980469-11.242187 2.921875-12.242187 8.683594l-64 362.664063c-.492188 2.796874.148437 5.699218 1.789062 8 1.644532 2.304687 4.140625 3.90625 6.957032 4.375l384 64c.597656.105468 1.171874.148437 1.769531.148437 5.078125 0 9.578125-3.648437 10.496093-8.808594l64-362.667969c.492188-2.792968-.171874-5.695312-1.8125-8.019531zm0 0" fill="#cfd8dc"/><path d="m288.4375 298.886719-83.199219 20.691406c-.851562.425781-1.707031.425781-2.558593.425781-2.773438 0-5.546876-1.066406-7.46875-3.199218-2.773438-2.558594-3.839844-6.398438-2.773438-10.027344l20.695312-82.984375 10.878907.210937s21.972656.640625 42.667969 21.335938c20.691406 20.691406 21.332031 42.664062 21.332031 42.664062zm0 0" fill="#90a4ae"/><path d="m512.011719 55.898438c0 14.933593-5.761719 29.015624-16.425781 39.46875l-29.441407 29.4375-78.933593-78.933594 29.441406-29.4375c10.453125-10.667969 24.53125-16.42968775 39.464844-16.42968775 30.722656 0 55.894531 25.17578175 55.894531 55.89453175zm0 0" fill="#ec407a"/><path d="m466.144531 124.804688-170.667969 170.667968c-1.277343 1.492188-2.984374 2.347656-4.90625 2.773438l-2.132812.640625-.425781-10.882813s-.640625-21.972656-21.332031-42.664062c-20.695313-20.695313-42.667969-21.335938-42.667969-21.335938l-10.878907-.210937.640626-2.347657c.425781-1.917968 1.277343-3.625 2.773437-4.90625l170.664063-170.667968zm0 0" fill="#ffc107"/><path d="m394.679688 490.671875c-.578126 0-1.175782-.042969-1.773438-.148437l-384-64c-2.816406-.449219-5.3125-2.046876-6.953125-4.351563-1.644531-2.324219-2.28125-5.207031-1.792969-8.023437l64-362.664063c1.023438-5.761719 6.507813-9.664063 12.265625-8.664063l274.285157 45.71875c5.800781.960938 9.75 6.464844 8.765624 12.265626-.980468 5.804687-6.527343 9.816406-12.265624 8.769531l-263.871094-43.988281-60.289063 341.671874 362.964844 60.503907 62.167969-352.277344c1-5.78125 6.570312-9.835937 12.351562-8.640625 5.800782 1.023438 9.683594 6.570312 8.640625 12.351562l-64 362.667969c-.898437 5.160157-5.398437 8.808594-10.496093 8.808594zm0 0"/><path d="m117.34375 490.671875c-2.515625 0-4.949219-.894531-6.890625-2.515625-2.238281-1.898438-3.605469-4.652344-3.773437-7.574219l-2.519532-46.65625c-.320312-5.886719 4.203125-10.921875 10.089844-11.222656 5.71875-.765625 10.902344 4.160156 11.222656 10.070313l1.898438 35.371093 155.179687-17.238281c5.886719-.617188 11.136719 3.585938 11.777344 9.410156.636719 5.867188-3.5625 11.136719-9.429687 11.796875l-166.402344 18.472657c-.363282.066406-.746094.085937-1.152344.085937zm0 0"/><path d="m209.78125 86.535156c-5.480469 0-10.152344-4.203125-10.621094-9.773437-.492187-5.886719 3.882813-11.050781 9.746094-11.519531l177.132812-14.761719c5.992188-.425781 11.027344 3.882812 11.519532 9.726562.492187 5.867188-3.863282 11.050781-9.75 11.523438l-177.128906 14.761719c-.300782.019531-.597657.042968-.898438.042968zm0 0"/><path d="m400.203125 459.226562c-5.355469 0-9.984375-4.03125-10.601563-9.472656-.640624-5.867187 3.5625-11.132812 9.429688-11.796875l91.09375-10.109375-18.519531-333.503906c-.339844-5.867188 4.183593-10.925781 10.050781-11.222656 5.90625-.511719 10.921875 4.160156 11.242188 10.070312l19.09375 343.570313c.316406 5.65625-3.84375 10.5625-9.472657 11.179687l-101.121093 11.222656c-.40625.042969-.8125.0625-1.195313.0625zm0 0"/><path d="m202.679688 320.003906c-2.796876 0-5.527344-1.105468-7.554688-3.113281-2.644531-2.644531-3.710938-6.507813-2.792969-10.132813l21.332031-85.332031c.46875-1.878906 1.429688-3.585937 2.796876-4.949219l200.085937-200.085937c10.578125-10.582031 24.617187-16.38671875 39.527344-16.38671875 30.847656 0 55.9375 25.08984375 55.9375 55.89453175 0 14.957031-5.800781 29.015624-16.382813 39.554687l-200.085937 200.082031c-1.367188 1.367188-3.09375 2.328125-4.949219 2.816406l-85.335938 21.335938c-.851562.210938-1.703124.316406-2.578124.316406zm30.976562-90.535156-16.320312 65.214844 65.214843-16.300782 197.996094-197.992187c6.546875-6.527344 10.132813-15.210937 10.132813-24.449219 0-19.070312-15.511719-34.601562-34.5625-34.601562-9.257813 0-17.941407 3.605468-24.46875 10.132812zm0 0"/><path d="m458.679688 128.003906c-2.730469 0-5.460938-1.042968-7.554688-3.113281l-64-64c-4.160156-4.160156-4.160156-10.921875 0-15.082031s10.925781-4.160156 15.085938 0l64 64c4.15625 4.160156 4.15625 10.921875 0 15.082031-2.070313 2.070313-4.800782 3.113281-7.53125 3.113281zm0 0"/><path d="m288.011719 298.671875c-5.738281 0-10.476563-4.566406-10.667969-10.324219-.019531-.660156-1.066406-18.304687-18.21875-35.457031s-34.792969-18.195313-35.539062-18.21875c-5.847657-.296875-10.433594-5.226563-10.199219-11.09375.214843-5.867187 5.121093-10.21875 10.921875-10.238281 1.070312.042968 26.496094 1.066406 49.878906 24.449218 23.382812 23.378907 24.425781 48.808594 24.449219 49.875.167969 5.886719-4.460938 10.816407-10.347657 11.007813-.0625 0-.171874 0-.277343 0zm0 0"/></svg>